HIERARCHY
ROOT Hips
{
	OFFSET 0.000000 89.005402 0.000000
	CHANNELS 6 Xposition Yposition Zposition Xrotation Yrotation Zrotation
	JOINT Spine
	{
		OFFSET 0.116900 10.681000 0.373400
		CHANNELS 3 Xrotation Yrotation Zrotation
		JOINT Spine1
		{
			OFFSET 0.000000 13.840401 0.053500
			CHANNELS 3 Xrotation Yrotation Zrotation
			JOINT Spine2
			{
				OFFSET 0.000000 14.712700 -0.366200
				CHANNELS 3 Xrotation Yrotation Zrotation
				JOINT Neck
				{
					OFFSET 0.000000 35.415497 -3.314200
					CHANNELS 3 Xrotation Yrotation Zrotation
					JOINT Head
					{
						OFFSET 0.000000 16.899200 1.218300
						CHANNELS 3 Xrotation Yrotation Zrotation
						JOINT HeadTop_End
						{
							OFFSET 0.000000 22.206207 2.192500
							CHANNELS 3 Xrotation Yrotation Zrotation
							End Site
							{
								OFFSET 0.000000 22.314178 0.000000
							}
						}
					}
				}
				JOINT LeftShoulder
				{
					OFFSET 12.896400 26.716293 -4.548400
					CHANNELS 3 Xrotation Yrotation Zrotation
					JOINT LeftArm
					{
						OFFSET 19.027000 -4.857010 -1.718400
						CHANNELS 3 Xrotation Yrotation Zrotation
						JOINT LeftForeArm
						{
							OFFSET 24.179897 0.000000 0.000000
							CHANNELS 3 Xrotation Yrotation Zrotation
							JOINT LeftHand
							{
								OFFSET 27.156403 0.000000 0.000000
								CHANNELS 3 Xrotation Yrotation Zrotation
								JOINT LeftHandIndex1
								{
									OFFSET 16.441200 0.000000 0.000000
									CHANNELS 3 Xrotation Yrotation Zrotation
									JOINT LeftHandIndex2
									{
										OFFSET 4.821899 0.000000 0.000000
										CHANNELS 3 Xrotation Yrotation Zrotation
										JOINT LeftHandIndex3
										{
											OFFSET 6.386497 0.000000 0.000000
											CHANNELS 3 Xrotation Yrotation Zrotation
											JOINT LeftHandIndex4
											{
												OFFSET 5.188988 0.000000 0.000000
												CHANNELS 3 Xrotation Yrotation Zrotation
												End Site
												{
													OFFSET -0.178703 5.185913 0.000177
												}
											}
										}
									}
								}
								JOINT LeftHandThumb1
								{
									OFFSET 6.534897 -5.032593 5.900300
									CHANNELS 3 Xrotation Yrotation Zrotation
									JOINT LeftHandThumb2
									{
										OFFSET 3.818176 -2.204422 2.204423
										CHANNELS 3 Xrotation Yrotation Zrotation
										JOINT LeftHandThumb3
										{
											OFFSET 3.252098 -1.877594 1.877601
											CHANNELS 3 Xrotation Yrotation Zrotation
											JOINT LeftHandThumb4
											{
												OFFSET 5.251778 -3.032120 3.032117
												CHANNELS 3 Xrotation Yrotation Zrotation
												End Site
												{
													OFFSET 0.000023 6.780014 0.000000
												}
											}
										}
									}
								}
							}
						}
					}
				}
				JOINT RightShoulder
				{
					OFFSET -12.896300 26.716293 -4.548400
					CHANNELS 3 Xrotation Yrotation Zrotation
					JOINT RightArm
					{
						OFFSET -19.027000 -4.857010 -1.718400
						CHANNELS 3 Xrotation Yrotation Zrotation
						JOINT RightForeArm
						{
							OFFSET -24.179897 0.000000 0.000000
							CHANNELS 3 Xrotation Yrotation Zrotation
							JOINT RightHand
							{
								OFFSET -27.156403 0.000000 0.000000
								CHANNELS 3 Xrotation Yrotation Zrotation
								JOINT RightHandThumb1
								{
									OFFSET -6.591202 -4.852203 5.988100
									CHANNELS 3 Xrotation Yrotation Zrotation
									JOINT RightHandThumb2
									{
										OFFSET -3.818176 -2.204422 2.204423
										CHANNELS 3 Xrotation Yrotation Zrotation
										JOINT RightHandThumb3
										{
											OFFSET -3.252098 -1.877594 1.877601
											CHANNELS 3 Xrotation Yrotation Zrotation
											JOINT RightHandThumb4
											{
												OFFSET -5.251778 -3.032120 3.032117
												CHANNELS 3 Xrotation Yrotation Zrotation
												End Site
												{
													OFFSET -0.000023 6.780014 0.000000
												}
											}
										}
									}
								}
								JOINT RightHandIndex1
								{
									OFFSET -16.029404 0.000000 0.000000
									CHANNELS 3 Xrotation Yrotation Zrotation
									JOINT RightHandIndex2
									{
										OFFSET -5.213303 0.000000 0.000000
										CHANNELS 3 Xrotation Yrotation Zrotation
										JOINT RightHandIndex3
										{
											OFFSET -6.386528 0.000000 0.000000
											CHANNELS 3 Xrotation Yrotation Zrotation
											JOINT RightHandIndex4
											{
												OFFSET -5.189026 0.000000 0.000000
												CHANNELS 3 Xrotation Yrotation Zrotation
												End Site
												{
													OFFSET 0.236702 5.183624 0.001972
												}
											}
										}
									}
								}
							}
						}
					}
				}
			}
		}
	}
	JOINT LeftUpLeg
	{
		OFFSET 14.073000 -7.904099 -1.463000
		CHANNELS 3 Xrotation Yrotation Zrotation
		JOINT LeftLeg
		{
			OFFSET -0.109806 -34.073280 4.093200
			CHANNELS 3 Xrotation Yrotation Zrotation
			JOINT LeftFoot
			{
				OFFSET 0.109806 -29.899420 -6.319000
				CHANNELS 3 Xrotation Yrotation Zrotation
				JOINT LeftToeBase
				{
					OFFSET 1.551100 -14.988700 20.535801
					CHANNELS 3 Xrotation Yrotation Zrotation
					JOINT LeftToe_End
					{
						OFFSET 0.221200 0.570800 13.248301
						CHANNELS 3 Xrotation Yrotation Zrotation
						End Site
						{
							OFFSET 0.000000 13.262435 0.000000
						}
					}
				}
			}
		}
	}
	JOINT RightUpLeg
	{
		OFFSET -13.839300 -7.904099 -1.463000
		CHANNELS 3 Xrotation Yrotation Zrotation
		JOINT RightLeg
		{
			OFFSET 0.109694 -34.073219 4.093300
			CHANNELS 3 Xrotation Yrotation Zrotation
			JOINT RightFoot
			{
				OFFSET -0.109694 -29.899384 -6.319200
				CHANNELS 3 Xrotation Yrotation Zrotation
				JOINT RightToeBase
				{
					OFFSET -1.551100 -14.988700 20.535801
					CHANNELS 3 Xrotation Yrotation Zrotation
					JOINT RightToe_End
					{
						OFFSET -0.221200 0.570900 13.248299
						CHANNELS 3 Xrotation Yrotation Zrotation
						End Site
						{
							OFFSET 0.000000 13.262440 0.000000
						}
					}
				}
			}
		}
	}
}
MOTION
Frames: 8
Frame Time: 0.033333
15.018135 79.865479 54.725822 -134.777568 -113.555310 -79.286140 18.904355 0.890954 6.390041 5.294066 -0.358001 -3.820492 5.306437 -0.409452 -3.811132 1.819915 6.170917 -8.131695 -1.820093 5.123531 -30.055640 -0.000001 0.000003 -0.000001 12.632787 -36.191441 -10.987095 -11.027785 -46.650359 -5.386154 0.000022 -49.263019 -7.323102 -32.498347 -6.651580 -4.293155 -4.731241 11.370729 -75.753744 -0.816401 3.073996 -46.874642 -4.740627 0.379140 -78.699461 -0.000001 0.000001 -0.000000 -7.471920 1.860685 -7.166917 30.986994 27.310534 -4.510880 83.254651 13.297860 -10.940240 0.000000 0.000001 0.000002 7.644942 7.942380 3.332681 -48.429743 23.469034 60.971535 -0.000022 54.360731 14.941763 -67.394098 53.394048 -0.687214 9.347176 2.810560 -11.364521 16.169037 -43.266014 15.843565 32.491828 -44.566759 5.661142 0.000001 -0.000000 0.000001 17.076783 -0.396533 31.924338 -0.204400 -0.284218 112.811571 1.553156 -1.173039 33.344563 -0.000001 0.000001 0.000001 -64.149492 13.997415 7.871414 84.115091 -5.618529 -4.798867 19.487110 -1.659738 -13.417125 -5.539878 -1.322698 0.920479 0.000002 -0.000002 -0.000001 -67.966236 15.800316 -55.049368 64.357000 -6.151444 -10.593168 -29.327077 -3.598619 11.140091 -0.674757 0.164681 -0.915975 -0.000000 -0.000002 0.000000 
14.738529 78.771545 52.883770 -149.349080 -112.707410 -100.408070 20.000163 1.050097 7.563693 6.034847 -0.448848 -3.338823 6.028861 -0.509756 -3.334322 1.981548 6.585463 -7.593573 -3.201687 8.109109 -29.454255 0.000000 -0.000003 -0.000000 8.723927 -38.234979 -11.008358 -6.801716 -44.626789 -6.698815 -0.000001 -49.958794 -4.308754 -35.185812 -3.575469 -7.860898 -4.730919 11.371023 -75.754099 -0.816400 3.073995 -46.874642 -4.740627 0.379135 -78.699461 0.000001 -0.000001 -0.000000 -7.471923 1.860686 -7.166917 30.986990 27.310534 -4.510881 83.254651 13.297860 -10.940245 -0.000000 -0.000001 -0.000001 8.735339 7.452836 0.420724 -49.173646 22.796467 62.369770 0.000005 52.859592 12.136568 -72.967744 49.495031 5.423108 9.347179 2.810559 -11.364524 16.169033 -43.266007 15.843570 32.491814 -44.566756 5.661141 0.000002 0.000000 0.000000 17.076784 -0.396534 31.924342 -0.204400 -0.284217 112.811564 1.553155 -1.173036 33.344563 0.000002 -0.000000 0.000001 -59.488147 9.162712 -3.873932 67.776391 -14.054738 -6.233720 15.710630 -1.733035 -26.708932 -3.683341 -2.930932 1.871579 -0.000002 0.000000 0.000001 -61.050375 6.562772 -53.940371 67.703608 -12.430197 -9.584136 -35.123237 -5.333803 13.119476 -0.674007 0.164625 -0.917126 -0.000000 0.000001 0.000000 
14.512558 78.346581 49.909092 -160.334210 -112.508385 -118.425918 21.928254 1.795318 8.091383 6.495185 -0.037123 -2.545023 6.480601 -0.107382 -2.543037 1.294351 7.188098 -6.694332 -2.785743 11.173648 -29.156906 0.000001 0.000001 0.000000 6.429971 -38.897914 -8.095401 -8.033718 -43.794668 -15.472767 0.000049 -52.410978 -0.952225 -35.604922 0.659697 -8.464157 -4.730547 11.371309 -75.754229 -0.816401 3.073997 -46.874639 -4.740627 0.379137 -78.699461 -0.000001 -0.000000 -0.000000 -7.471926 1.860685 -7.166917 30.986994 27.310534 -4.510880 83.254651 13.297862 -10.940246 -0.000003 -0.000000 0.000000 9.511794 5.975275 -4.833413 -49.546561 18.460902 66.234947 0.000020 52.429191 10.229706 -76.466112 43.942305 13.005864 9.347176 2.810562 -11.364526 16.169030 -43.266007 15.843565 32.491821 -44.566762 5.661142 0.000001 -0.000002 0.000001 17.076784 -0.396532 31.924342 -0.204400 -0.284218 112.811564 1.553156 -1.173039 33.344560 0.000002 -0.000001 0.000000 -51.395104 6.384414 -11.249169 51.131322 -12.701867 -5.964896 13.457429 -1.541993 -27.693019 -1.066208 -3.000167 2.173060 -0.000000 0.000001 -0.000001 -52.821917 -2.777465 -48.618646 68.274305 -18.401488 -5.727050 -39.368596 -5.927476 12.907831 -0.673838 0.164659 -0.917360 0.000000 -0.000002 -0.000000 
13.948351 77.954697 47.634769 -154.585103 -114.633565 -120.546582 19.529058 3.901530 6.388206 5.660271 1.026337 -1.795722 5.662350 0.979913 -1.761698 1.520395 8.081938 -4.576911 -1.458451 14.764980 -29.162654 -0.000000 0.000000 -0.000000 6.071194 -36.471363 -3.852071 -13.082964 -44.652078 -29.788770 0.000014 -54.477022 1.761113 -33.836016 4.034281 -5.945057 -4.730100 11.371594 -75.754147 -0.816402 3.073996 -46.874642 -4.740628 0.379140 -78.699461 -0.000000 0.000001 0.000000 -7.471922 1.860685 -7.166916 30.986994 27.310537 -4.510879 83.254658 13.297862 -10.940245 0.000002 -0.000002 0.000001 10.365900 4.933595 -9.811455 -49.038303 14.716300 70.979804 0.000013 50.249743 8.388664 -79.000277 37.581828 22.916343 9.347178 2.810560 -11.364523 16.169035 -43.266011 15.843566 32.491821 -44.566759 5.661137 -0.000002 0.000000 -0.000002 17.076783 -0.396535 31.924345 -0.204402 -0.284214 112.811564 1.553157 -1.173036 33.344563 0.000003 -0.000002 0.000000 -47.605380 3.173301 -10.910478 37.990882 -7.542516 -7.421691 11.842455 -1.266334 -31.829098 -1.088191 -1.973815 2.909113 -0.000000 -0.000000 -0.000000 -50.474787 -8.014305 -39.872807 67.636918 -21.380727 0.432219 -41.592249 -4.580729 9.660385 -0.673928 0.164659 -0.917239 -0.000000 0.000001 0.000000 
13.263515 77.901932 45.952187 -147.806154 -114.812229 -124.850025 18.058347 5.994459 7.121067 4.810957 1.823272 -0.260137 4.820940 1.774207 -0.205217 0.994468 9.273368 -3.283371 -1.043132 19.296092 -28.659002 0.000001 -0.000001 -0.000002 3.007685 -33.779165 -5.820494 -14.390821 -44.509618 -39.476519 0.000002 -54.995525 4.223539 -31.098145 4.927885 -2.122077 -4.729627 11.371889 -75.753888 -0.816402 3.073998 -46.874642 -4.740628 0.379138 -78.699461 -0.000001 0.000000 0.000000 -7.471922 1.860687 -7.166916 30.986994 27.310534 -4.510881 83.254651 13.297863 -10.940248 -0.000004 -0.000001 0.000001 10.722766 5.393452 -12.739752 -50.702666 16.007921 74.146512 0.000031 43.295415 5.279430 -81.124199 31.701384 34.501065 9.347177 2.810560 -11.364525 16.169032 -43.266007 15.843566 32.491821 -44.566759 5.661138 -0.000001 0.000000 0.000001 17.076781 -0.396534 31.924342 -0.204400 -0.284218 112.811564 1.553158 -1.173037 33.344563 -0.000002 -0.000002 -0.000001 -45.539839 -2.393432 -6.457479 39.262639 3.059495 -9.784662 2.419545 0.104602 -29.224190 -7.252868 -1.104913 6.505772 0.000000 -0.000000 0.000000 -45.101696 -15.050322 -28.392089 63.712756 -20.474404 6.420503 -42.320159 -1.745932 5.161341 -3.349463 -0.295642 -4.486354 0.000000 -0.000000 -0.000000 
12.418425 77.733994 44.112984 -147.685738 -114.538967 -135.299600 18.106010 5.796891 8.608204 4.665032 1.640300 1.508912 4.671968 1.605444 1.581266 -1.915394 11.008072 -1.525534 -1.405991 24.705959 -27.869074 0.000001 0.000000 -0.000000 -0.613056 -31.036164 -9.706187 -12.145610 -42.854560 -42.405014 0.000029 -55.178721 6.999219 -29.800880 3.027025 1.208677 -4.729097 11.372156 -75.753362 -0.816402 3.073994 -46.874639 -4.740631 0.379136 -78.699461 -0.000000 0.000001 0.000000 -7.471920 1.860683 -7.166915 30.986994 27.310532 -4.510876 83.254651 13.297862 -10.940244 0.000005 -0.000001 -0.000002 10.735298 7.801334 -13.887839 -56.849454 21.160520 77.047976 0.000027 32.039724 1.651548 -82.122595 28.472941 44.424442 9.347179 2.810562 -11.364526 16.169028 -43.266014 15.843568 32.491821 -44.566759 5.661143 -0.000002 0.000001 -0.000000 17.076779 -0.396530 31.924342 -0.204401 -0.284220 112.811564 1.553152 -1.173038 33.344560 0.000002 0.000002 0.000000 -43.372360 -2.259847 -4.433104 46.737895 16.819792 -9.479468 -8.965006 0.247768 -12.194675 -5.695698 1.055805 6.630836 0.000000 -0.000001 -0.000000 -42.037591 -21.853462 -19.763798 64.286478 -14.644682 9.708213 -36.638228 3.041370 -2.384162 -15.242221 1.047442 -9.052588 -0.000001 0.000001 0.000001 
11.046827 75.546204 42.105389 -148.855162 -114.651733 -144.237845 17.589153 5.065958 7.966626 4.309032 0.844686 2.249592 4.306285 0.812958 2.362534 -4.754987 12.205448 2.605735 -2.171967 30.587363 -26.699057 0.000000 0.000000 0.000001 0.483973 -27.445959 -5.315052 -14.485549 -40.055689 -48.734588 0.000051 -55.103511 9.656300 -30.605982 -1.573874 3.157836 -4.728508 11.372425 -75.752604 -0.816400 3.073993 -46.874642 -4.740633 0.379141 -78.699455 -0.000001 0.000001 0.000001 -7.471922 1.860685 -7.166917 30.986994 27.310534 -4.510877 83.254658 13.297860 -10.940248 0.000002 -0.000001 0.000000 10.681120 12.451897 -14.747616 -64.337732 23.714632 81.814656 0.000013 20.586252 -0.403371 -80.035583 29.285392 49.252617 9.347174 2.810565 -11.364526 16.169032 -43.266018 15.843563 32.491821 -44.566762 5.661141 -0.000000 -0.000001 -0.000001 17.076783 -0.396530 31.924342 -0.204404 -0.284218 112.811564 1.553151 -1.173041 33.344560 0.000001 -0.000002 -0.000003 -45.945877 -1.843450 0.766114 55.466402 17.476629 -6.837956 -16.235616 1.649303 -8.226084 -4.485921 2.826071 3.045423 0.000000 -0.000002 0.000000 -47.259633 -23.965809 -19.685210 75.686241 -3.907375 10.275822 -27.273799 5.494942 -8.061078 -30.321638 3.745267 -12.463906 -0.000001 -0.000001 0.000001 
10.145882 72.773178 40.116089 -149.126949 -116.076620 -149.016983 16.117325 4.135158 5.914531 3.902051 0.279750 1.967486 3.884233 0.237954 2.128128 -6.994582 12.607374 5.357684 -4.437588 34.691381 -23.942475 0.000000 0.000000 -0.000001 2.998109 -25.103810 2.733682 -18.988315 -36.259780 -56.732989 0.000083 -54.489900 11.521973 -33.357042 -8.382706 5.414521 -4.726835 11.372577 -75.751736 -0.816399 3.073996 -46.874639 -4.740626 0.379141 -78.699461 -0.000004 0.000004 0.000001 -7.471920 1.860686 -7.166915 30.986994 27.310534 -4.510876 83.254651 13.297862 -10.940244 0.000002 0.000002 -0.000002 10.640010 18.618607 -16.692948 -66.938791 21.229126 83.943544 -0.000009 18.358847 -1.864780 -71.975195 31.281228 45.905080 9.347181 2.810559 -11.364522 16.169032 -43.266014 15.843565 32.491814 -44.566759 5.661144 0.000000 -0.000000 -0.000000 17.076788 -0.396534 31.924342 -0.204396 -0.284217 112.811564 1.553155 -1.173039 33.344567 0.000001 -0.000002 -0.000001 -51.408225 -4.756993 3.880456 63.760970 14.077609 -3.361709 -21.824254 3.042172 -9.499343 0.316726 3.989400 -3.703826 0.000000 -0.000001 -0.000000 -54.693150 -22.907280 -25.638976 84.773747 2.030369 8.294561 -20.377909 3.522465 -6.093713 -29.277715 2.081562 -1.104420 0.000000 0.000001 -0.000000 
